<svg width="22" height="22" viewBox="0 0 22 22" fill="none" xmlns="http://www.w3.org/2000/svg">
<g clip-path="url(#clip0_70_3258)">
<path d="M3.05404 7.12613C2.67498 7.12613 2.35336 7.25832 2.08898 7.52269C1.82461 7.78707 1.69238 8.10431 1.69238 8.47458V14.1596C1.69238 14.5392 1.82457 14.8605 2.08898 15.1249C2.35336 15.3893 2.67498 15.5215 3.05404 15.5215C3.43282 15.5215 3.75249 15.3893 4.01276 15.1249C4.27252 14.8605 4.40276 14.5392 4.40276 14.1596V8.47458C4.40276 8.10427 4.27057 7.78707 4.00616 7.52269C3.74175 7.25832 3.4243 7.12613 3.05404 7.12613Z" fill="#1D2224"/>
<path d="M14.0012 2.02266L14.9399 0.290979C15.0015 0.176334 14.9796 0.0884211 14.874 0.0266037C14.7593 -0.0267009 14.6712 0.000309403 14.6096 0.105725L13.6577 1.85125C12.8202 1.48094 11.9343 1.29545 11.0002 1.29545C10.0658 1.29545 9.17991 1.48098 8.34267 1.85125L7.39079 0.105725C7.32893 0.000309403 7.24082 -0.0264622 7.12641 0.0266037C7.02052 0.0886996 6.9986 0.176334 7.06046 0.290979L7.99921 2.02266C7.04733 2.50809 6.28921 3.18415 5.72514 4.05229C5.16106 4.92092 4.87891 5.87014 4.87891 6.90162H17.1082C17.1082 5.87038 16.826 4.92112 16.2619 4.05229C15.6978 3.18415 14.9441 2.50809 14.0012 2.02266ZM8.57395 4.54142C8.47243 4.64318 8.35118 4.69382 8.21024 4.69382C8.06903 4.69382 7.95025 4.64318 7.85334 4.54142C7.75644 4.44014 7.70799 4.31937 7.70799 4.17796C7.70799 4.03702 7.75644 3.91601 7.85334 3.81449C7.95025 3.71321 8.06931 3.66257 8.21024 3.66257C8.35118 3.66257 8.47243 3.71321 8.57395 3.81449C8.67523 3.91625 8.72611 4.03702 8.72611 4.17796C8.72583 4.31914 8.67499 4.44014 8.57395 4.54142ZM14.1465 4.54142C14.0494 4.64318 13.9303 4.69382 13.7896 4.69382C13.6484 4.69382 13.5272 4.64318 13.4259 4.54142C13.3244 4.44014 13.2737 4.31937 13.2737 4.17796C13.2737 4.03702 13.3244 3.91601 13.4259 3.81449C13.5272 3.71321 13.6484 3.66257 13.7896 3.66257C13.9306 3.66257 14.0494 3.71321 14.1465 3.81449C14.2435 3.91625 14.2919 4.03702 14.2919 4.17796C14.2919 4.31914 14.2434 4.44014 14.1465 4.54142Z" fill="#1D2224"/>
<path d="M4.93164 16.1825C4.93164 16.5883 5.07258 16.9318 5.3545 17.2138C5.63665 17.4957 5.98019 17.6366 6.38574 17.6366H7.36416L7.37757 20.6381C7.37757 21.0172 7.50975 21.339 7.77413 21.6034C8.0385 21.8678 8.35598 22 8.72601 22C9.10483 22 9.42665 21.8678 9.69106 21.6034C9.95548 21.339 10.0877 21.0172 10.0877 20.6381V17.6369H11.9121V20.6381C11.9121 21.0172 12.0443 21.339 12.3087 21.6034C12.5731 21.8678 12.8946 22 13.2737 22C13.6525 22 13.9744 21.8678 14.2388 21.6034C14.5032 21.339 14.6353 21.0172 14.6353 20.6381V17.6369H15.627C16.0235 17.6369 16.3627 17.4959 16.6451 17.214C16.927 16.9321 17.068 16.5885 17.068 16.1827V7.37711H4.93164V16.1825Z" fill="#1D2224"/>
<path d="M18.9461 7.12613C18.5758 7.12613 18.2586 7.25637 17.9942 7.51613C17.7298 7.77637 17.5977 8.09603 17.5977 8.47458V14.1596C17.5977 14.5392 17.7298 14.8605 17.9942 15.1249C18.2586 15.3893 18.5761 15.5215 18.9461 15.5215C19.325 15.5215 19.6468 15.3893 19.9112 15.1249C20.1756 14.8605 20.3078 14.5392 20.3078 14.1596V8.47458C20.3078 8.09599 20.1756 7.77637 19.9112 7.51613C19.6468 7.25637 19.325 7.12613 18.9461 7.12613Z" fill="#1D2224"/>
</g>
<defs>
<clipPath id="clip0_70_3258">
<rect width="22" height="22" fill="white"/>
</clipPath>
</defs>
</svg>
