<svg width="22" height="22" viewBox="0 0 22 22" fill="none" xmlns="http://www.w3.org/2000/svg">
<g clip-path="url(#clip0_70_3265)">
<path d="M10.8482 5.32275C12.2558 5.32275 13.4906 4.84829 14.5526 3.89935C15.6147 2.95041 16.1457 1.84696 16.1457 0.588998C16.1457 0.450838 16.133 0.254505 16.1078 0C15.9223 0.0218147 15.7832 0.0399937 15.6905 0.0545368C14.3925 0.214512 13.2504 0.763516 12.2642 1.70153C11.2781 2.63956 10.785 3.64304 10.785 4.71196C10.785 4.83555 10.8061 5.03918 10.8482 5.32275ZM15.8928 22C16.8958 22 18.0042 21.4074 19.2179 20.2221C20.4317 19.0369 21.3588 17.6443 21.9994 16.0446C19.6141 14.983 18.4214 13.4596 18.4214 11.4745C18.4214 9.81656 19.3865 8.39863 21.3167 7.22063C19.9765 5.77359 18.2065 5.05007 16.0066 5.05007C15.0794 5.05007 14.2324 5.17005 13.4654 5.41001L12.9849 5.56271L12.3401 5.78086C11.9187 5.91902 11.5352 5.98812 11.1896 5.98812C10.9199 5.98812 10.5658 5.90811 10.1276 5.74814L9.63449 5.57362L9.16672 5.41001C8.48397 5.16277 7.75068 5.03916 6.96682 5.03916C4.86807 5.03916 3.18234 5.64997 1.90959 6.8716C0.636847 8.0932 0.000488281 9.70385 0.000488281 11.7035C0.000488281 14.5176 1.02035 17.1172 3.06011 19.5022C4.47614 21.1674 5.76995 22 6.94152 22C7.43884 22 7.93191 21.9164 8.42076 21.7491L9.04028 21.531L9.53337 21.3783C10.2245 21.1674 10.8609 21.062 11.4425 21.062C12.0578 21.062 12.7658 21.1965 13.5665 21.4655L13.9584 21.5964C14.776 21.8655 15.4208 22 15.8928 22Z" fill="#1D2224"/>
</g>
<defs>
<clipPath id="clip0_70_3265">
<rect width="22" height="22" fill="white"/>
</clipPath>
</defs>
</svg>
