<svg width="21" height="21" viewBox="0 0 21 21" fill="none" xmlns="http://www.w3.org/2000/svg">
<path d="M4.06336 4.19983H17.9759C19.2884 4.19983 19.9499 4.81933 19.9499 6.07933V14.9203C19.9499 16.1698 19.2884 16.7998 17.9759 16.7998H4.06336C2.75086 16.7998 2.08936 16.1698 2.08936 14.9203V6.07933C2.08936 4.81933 2.75086 4.19983 4.06336 4.19983ZM11.0144 13.2298L18.0914 7.42333C18.3434 7.21333 18.5429 6.73033 18.2279 6.29983C17.9234 5.86933 17.3669 5.85883 16.9994 6.12133L11.0144 10.1743L5.03986 6.12133C4.67236 5.85883 4.11586 5.86933 3.81136 6.29983C3.49636 6.73033 3.69586 7.21333 3.94786 7.42333L11.0144 13.2298Z" fill="white"/>
</svg>
