<svg width="26" height="26" viewBox="0 0 26 26" fill="none" xmlns="http://www.w3.org/2000/svg">
<path d="M13.0003 22.75L11.4295 21.3417C9.60588 19.6986 8.09824 18.2812 6.90658 17.0896C5.71491 15.8979 4.76699 14.8281 4.06283 13.8802C3.35866 12.9323 2.86664 12.0611 2.58678 11.2667C2.30692 10.4722 2.16699 9.65971 2.16699 8.82915C2.16699 7.13193 2.73574 5.71457 3.87324 4.57707C5.01074 3.43957 6.4281 2.87082 8.12533 2.87082C9.06421 2.87082 9.95796 3.06943 10.8066 3.46665C11.6552 3.86387 12.3864 4.4236 13.0003 5.14582C13.6142 4.4236 14.3455 3.86387 15.1941 3.46665C16.0427 3.06943 16.9364 2.87082 17.8753 2.87082C19.5725 2.87082 20.9899 3.43957 22.1274 4.57707C23.2649 5.71457 23.8337 7.13193 23.8337 8.82915C23.8337 9.65971 23.6937 10.4722 23.4139 11.2667C23.134 12.0611 22.642 12.9323 21.9378 13.8802C21.2337 14.8281 20.2857 15.8979 19.0941 17.0896C17.9024 18.2812 16.3948 19.6986 14.5712 21.3417L13.0003 22.75ZM13.0003 19.825C14.7337 18.2722 16.16 16.9406 17.2795 15.8302C18.3989 14.7198 19.2837 13.7538 19.9337 12.9323C20.5837 12.1108 21.035 11.3795 21.2878 10.7385C21.5406 10.0976 21.667 9.4611 21.667 8.82915C21.667 7.74582 21.3059 6.84304 20.5837 6.12082C19.8614 5.3986 18.9587 5.03749 17.8753 5.03749C17.0267 5.03749 16.2413 5.27672 15.5191 5.75519C14.7969 6.23367 14.3003 6.84304 14.0295 7.58332H11.9712C11.7003 6.84304 11.2038 6.23367 10.4816 5.75519C9.75935 5.27672 8.97394 5.03749 8.12533 5.03749C7.04199 5.03749 6.13921 5.3986 5.41699 6.12082C4.69477 6.84304 4.33366 7.74582 4.33366 8.82915C4.33366 9.4611 4.46005 10.0976 4.71283 10.7385C4.9656 11.3795 5.41699 12.1108 6.06699 12.9323C6.71699 13.7538 7.60171 14.7198 8.72116 15.8302C9.8406 16.9406 11.267 18.2722 13.0003 19.825Z" fill="black"/>
</svg>
