<svg width="18" height="18" viewBox="0 0 18 18" fill="none" xmlns="http://www.w3.org/2000/svg">
<g clip-path="url(#clip0_70_3758)">
<path d="M8.35195 16.1436C6.92461 14.3568 3.75 10.0261 3.75 7.59363C3.75 4.64232 6.10047 2.24988 9 2.24988C11.8984 2.24988 14.25 4.64232 14.25 7.59363C14.25 10.0261 11.0508 14.3568 9.64805 16.1436C9.31172 16.5695 8.68828 16.5695 8.35195 16.1436ZM9 9.37488C9.96523 9.37488 10.75 8.5761 10.75 7.59363C10.75 6.61116 9.96523 5.81238 9 5.81238C8.03477 5.81238 7.25 6.61116 7.25 7.59363C7.25 8.5761 8.03477 9.37488 9 9.37488Z" fill="white"/>
</g>
<defs>
<clipPath id="clip0_70_3758">
<rect width="10.5" height="14.25" fill="white" transform="translate(3.75 2.24988)"/>
</clipPath>
</defs>
</svg>
