<svg width="104" height="21" viewBox="0 0 104 21" fill="none" xmlns="http://www.w3.org/2000/svg">
<path d="M4.70561 17.7188L6.0183 12.0841L1.61572 8.29428L7.43197 7.79297L9.69385 2.47917L11.9557 7.79297L17.772 8.29428L13.3694 12.0841L14.6821 17.7188L9.69385 14.731L4.70561 17.7188Z" fill="#FFCE22"/>
<g clip-path="url(#clip0_105_52)">
<path d="M24.9742 17.7188L26.2869 12.0841L21.8843 8.29428L27.7005 7.79297L29.9624 2.47917L32.2243 7.79297L38.0405 8.29428L33.638 12.0841L34.9506 17.7188L29.9624 14.731L24.9742 17.7188Z" fill="#FFCE22"/>
<g clip-path="url(#clip1_105_52)">
<path d="M24.9742 17.7188L26.2869 12.0841L21.8843 8.29428L27.7005 7.79297L29.9624 2.47917L32.2243 7.79297L38.0405 8.29428L33.638 12.0841L34.9506 17.7188L29.9624 14.731L24.9742 17.7188Z" fill="#FFCE22"/>
<path d="M24.9742 17.7188L26.2869 12.0841L21.8843 8.29428L27.7005 7.79297L29.9624 2.47917L32.2243 7.79297L38.0405 8.29428L33.638 12.0841L34.9506 17.7188L29.9624 14.731L24.9742 17.7188Z" fill="#FFCE22"/>
</g>
</g>
<g clip-path="url(#clip2_105_52)">
<path d="M45.2432 17.7188L46.5559 12.0841L42.1533 8.29428L47.9696 7.79297L50.2314 2.47917L52.4933 7.79297L58.3096 8.29428L53.907 12.0841L55.2197 17.7188L50.2314 14.731L45.2432 17.7188Z" fill="#F58800"/>
<g clip-path="url(#clip3_105_52)">
<path d="M45.2432 17.7188L46.5559 12.0841L42.1533 8.29428L47.9696 7.79297L50.2314 2.47917L52.4933 7.79297L58.3096 8.29428L53.907 12.0841L55.2197 17.7188L50.2314 14.731L45.2432 17.7188Z" fill="#FFCE22"/>
<g clip-path="url(#clip4_105_52)">
<path d="M45.2432 17.7188L46.5559 12.0841L42.1533 8.29428L47.9696 7.79297L50.2314 2.47917L52.4933 7.79297L58.3096 8.29428L53.907 12.0841L55.2197 17.7188L50.2314 14.731L45.2432 17.7188Z" fill="#FFCE22"/>
<path d="M45.2432 17.7188L46.5559 12.0841L42.1533 8.29428L47.9696 7.79297L50.2314 2.47917L52.4933 7.79297L58.3096 8.29428L53.907 12.0841L55.2197 17.7188L50.2314 14.731L45.2432 17.7188Z" fill="#FFCE22"/>
</g>
</g>
</g>
<path d="M68.6059 14.7219L71.3818 13.0594L74.1578 14.7437L73.4307 11.5938L75.8762 9.49375L72.6596 9.20937L71.3818 6.23438L70.104 9.1875L66.8875 9.47187L69.3329 11.5938L68.6059 14.7219ZM65.9401 18.375L67.3721 12.2281L62.5693 8.09375L68.9143 7.54688L71.3818 1.75L73.8493 7.54688L80.1943 8.09375L75.3915 12.2281L76.8236 18.375L71.3818 15.1156L65.9401 18.375Z" fill="#FFCE22"/>
<path d="M90.6371 14.7219L93.4131 13.0594L96.189 14.7437L95.462 11.5938L97.9075 9.49375L94.6909 9.20937L93.4131 6.23438L92.1353 9.1875L88.9187 9.47187L91.3642 11.5938L90.6371 14.7219ZM87.9714 18.375L89.4034 12.2281L84.6006 8.09375L90.9456 7.54688L93.4131 1.75L95.8806 7.54688L102.226 8.09375L97.4228 12.2281L98.8548 18.375L93.4131 15.1156L87.9714 18.375Z" fill="#FFCE22"/>
<defs>
<clipPath id="clip0_105_52">
<rect width="19.3875" height="19.25" fill="white" transform="translate(20.2686 0.875)"/>
</clipPath>
<clipPath id="clip1_105_52">
<rect width="19.3875" height="19.25" fill="white" transform="translate(20.2686 0.875)"/>
</clipPath>
<clipPath id="clip2_105_52">
<rect width="19.3875" height="19.25" fill="white" transform="translate(40.5376 0.875)"/>
</clipPath>
<clipPath id="clip3_105_52">
<rect width="19.3875" height="19.25" fill="white" transform="translate(40.5376 0.875)"/>
</clipPath>
<clipPath id="clip4_105_52">
<rect width="19.3875" height="19.25" fill="white" transform="translate(40.5376 0.875)"/>
</clipPath>
</defs>
</svg>
