<svg width="104" height="22" viewBox="0 0 104 22" fill="none" xmlns="http://www.w3.org/2000/svg">
<path d="M4.70512 17.8453L6.01781 12.1704L1.61523 8.35351L7.43149 7.84863L9.69336 2.49687L11.9552 7.84863L17.7715 8.35351L13.3689 12.1704L14.6816 17.8453L9.69336 14.8362L4.70512 17.8453Z" fill="#FFCE22"/>
<g clip-path="url(#clip0_159_17)">
<path d="M24.9737 17.8453L26.2864 12.1704L21.8838 8.35351L27.7 7.84863L29.9619 2.49687L32.2238 7.84863L38.04 8.35351L33.6375 12.1704L34.9502 17.8453L29.9619 14.8362L24.9737 17.8453Z" fill="#FFCE22"/>
<g clip-path="url(#clip1_159_17)">
<path d="M24.9737 17.8453L26.2864 12.1704L21.8838 8.35351L27.7 7.84863L29.9619 2.49687L32.2238 7.84863L38.04 8.35351L33.6375 12.1704L34.9502 17.8453L29.9619 14.8362L24.9737 17.8453Z" fill="#FFCE22"/>
<path d="M24.9737 17.8453L26.2864 12.1704L21.8838 8.35351L27.7 7.84863L29.9619 2.49687L32.2238 7.84863L38.04 8.35351L33.6375 12.1704L34.9502 17.8453L29.9619 14.8362L24.9737 17.8453Z" fill="#FFCE22"/>
</g>
</g>
<g clip-path="url(#clip2_159_17)">
<path d="M45.2422 17.8453L46.5549 12.1704L42.1523 8.35351L47.9686 7.84863L50.2305 2.49687L52.4923 7.84863L58.3086 8.35351L53.906 12.1704L55.2187 17.8453L50.2305 14.8362L45.2422 17.8453Z" fill="#F58800"/>
<g clip-path="url(#clip3_159_17)">
<path d="M45.2422 17.8453L46.5549 12.1704L42.1523 8.35351L47.9686 7.84863L50.2305 2.49687L52.4923 7.84863L58.3086 8.35351L53.906 12.1704L55.2187 17.8453L50.2305 14.8362L45.2422 17.8453Z" fill="#FFCE22"/>
<g clip-path="url(#clip4_159_17)">
<path d="M45.2422 17.8453L46.5549 12.1704L42.1523 8.35351L47.9686 7.84863L50.2305 2.49687L52.4923 7.84863L58.3086 8.35351L53.906 12.1704L55.2187 17.8453L50.2305 14.8362L45.2422 17.8453Z" fill="#FFCE22"/>
<path d="M45.2422 17.8453L46.5549 12.1704L42.1523 8.35351L47.9686 7.84863L50.2305 2.49687L52.4923 7.84863L58.3086 8.35351L53.906 12.1704L55.2187 17.8453L50.2305 14.8362L45.2422 17.8453Z" fill="#FFCE22"/>
</g>
</g>
</g>
<path d="M68.6059 14.827L71.3818 13.1527L74.1578 14.8491L73.4307 11.6766L75.8762 9.56156L72.6596 9.27515L71.3818 6.2789L70.104 9.25312L66.8875 9.53953L69.3329 11.6766L68.6059 14.827ZM65.9401 18.5062L67.3721 12.3155L62.5693 8.15156L68.9143 7.60078L71.3818 1.7625L73.8493 7.60078L80.1943 8.15156L75.3915 12.3155L76.8236 18.5062L71.3818 15.2236L65.9401 18.5062Z" fill="#FFCE22"/>
<path d="M90.6371 14.827L93.4131 13.1527L96.189 14.8491L95.462 11.6766L97.9075 9.56156L94.6909 9.27515L93.4131 6.2789L92.1353 9.25312L88.9187 9.53953L91.3642 11.6766L90.6371 14.827ZM87.9714 18.5062L89.4034 12.3155L84.6006 8.15156L90.9456 7.60078L93.4131 1.7625L95.8806 7.60078L102.226 8.15156L97.4228 12.3155L98.8548 18.5062L93.4131 15.2236L87.9714 18.5062Z" fill="#FFCE22"/>
<defs>
<clipPath id="clip0_159_17">
<rect width="19.3875" height="19.3875" fill="white" transform="translate(20.2686 0.881248)"/>
</clipPath>
<clipPath id="clip1_159_17">
<rect width="19.3875" height="19.3875" fill="white" transform="translate(20.2686 0.881248)"/>
</clipPath>
<clipPath id="clip2_159_17">
<rect width="19.3875" height="19.3875" fill="white" transform="translate(40.5371 0.881248)"/>
</clipPath>
<clipPath id="clip3_159_17">
<rect width="19.3875" height="19.3875" fill="white" transform="translate(40.5371 0.881248)"/>
</clipPath>
<clipPath id="clip4_159_17">
<rect width="19.3875" height="19.3875" fill="white" transform="translate(40.5371 0.881248)"/>
</clipPath>
</defs>
</svg>
