<svg width="20" height="22" viewBox="0 0 20 22" fill="none" xmlns="http://www.w3.org/2000/svg">
<g clip-path="url(#clip0_70_3771)">
<path d="M9.76326 6.39506C7.12912 6.39506 5.0044 8.48658 5.0044 11.0796C5.0044 13.6726 7.12912 15.7641 9.76326 15.7641C12.3974 15.7641 14.5221 13.6726 14.5221 11.0796C14.5221 8.48658 12.3974 6.39506 9.76326 6.39506ZM9.76326 14.1251C8.06101 14.1251 6.66938 12.7593 6.66938 11.0796C6.66938 9.39983 8.05687 8.03403 9.76326 8.03403C11.4697 8.03403 12.8571 9.39983 12.8571 11.0796C12.8571 12.7593 11.4655 14.1251 9.76326 14.1251ZM15.8268 6.20344C15.8268 6.81092 15.3298 7.29609 14.7168 7.29609C14.0997 7.29609 13.6068 6.80684 13.6068 6.20344C13.6068 5.60004 14.1038 5.1108 14.7168 5.1108C15.3298 5.1108 15.8268 5.60004 15.8268 6.20344ZM18.9786 7.3124C18.9082 5.84874 18.5686 4.55225 17.4793 3.48407C16.3942 2.41589 15.0771 2.08157 13.5902 2.00818C12.0578 1.92257 7.4646 1.92257 5.93215 2.00818C4.44941 2.07749 3.13234 2.41181 2.04306 3.47999C0.953781 4.54817 0.618299 5.84467 0.543748 7.30832C0.456771 8.81682 0.456771 13.3382 0.543748 14.8467C0.614158 16.3104 0.953781 17.6069 2.04306 18.6751C3.13234 19.7433 4.44527 20.0776 5.93215 20.151C7.4646 20.2366 12.0578 20.2366 13.5902 20.151C15.0771 20.0816 16.3942 19.7473 17.4793 18.6751C18.5645 17.6069 18.9041 16.3104 18.9786 14.8467C19.0656 13.3382 19.0656 8.8209 18.9786 7.3124ZM16.9989 16.4653C16.6758 17.2644 16.0504 17.88 15.2345 18.2021C14.0127 18.6791 11.1135 18.5691 9.76326 18.5691C8.41306 18.5691 5.5097 18.6751 4.29202 18.2021C3.48024 17.8841 2.85484 17.2685 2.52764 16.4653C2.04306 15.2626 2.15489 12.4087 2.15489 11.0796C2.15489 9.75046 2.0472 6.89246 2.52764 5.69382C2.8507 4.89472 3.4761 4.27909 4.29202 3.957C5.51384 3.47999 8.41306 3.59007 9.76326 3.59007C11.1135 3.59007 14.0168 3.48407 15.2345 3.957C16.0463 4.27501 16.6717 4.89064 16.9989 5.69382C17.4835 6.89654 17.3716 9.75046 17.3716 11.0796C17.3716 12.4087 17.4835 15.2667 16.9989 16.4653Z" fill="white"/>
</g>
<defs>
<clipPath id="clip0_70_3771">
<rect width="18.555" height="20.8744" fill="white" transform="translate(0.481445 0.646484)"/>
</clipPath>
</defs>
</svg>
