<svg width="19" height="19" viewBox="0 0 19 19" fill="none" xmlns="http://www.w3.org/2000/svg">
<g clip-path="url(#clip0_70_3775)">
<path d="M4.46669 18.2008V6.46415H0.488611L0.488611 18.2008H4.46669ZM2.47817 4.86076C3.86539 4.86076 4.72887 3.95952 4.72887 2.83328C4.70303 1.68164 3.86545 0.80542 2.50449 0.80542C1.14375 0.80542 0.253906 1.68166 0.253906 2.83328C0.253906 3.95958 1.11718 4.86076 2.4522 4.86076H2.47804H2.47817ZM6.66855 18.2008H10.6466V11.6465C10.6466 11.2957 10.6725 10.9453 10.7775 10.6945C11.0651 9.99368 11.7197 9.26781 12.8186 9.26781C14.2581 9.26781 14.834 10.3441 14.834 11.9219V18.2007H18.8118V11.471C18.8118 7.86599 16.8492 6.18861 14.2319 6.18861C12.0859 6.18861 11.1436 7.36492 10.6202 8.1661H10.6467V6.46391H6.66864C6.72084 7.56521 6.66864 18.2005 6.66864 18.2005L6.66855 18.2008Z" fill="white"/>
</g>
<defs>
<clipPath id="clip0_70_3775">
<rect width="18.555" height="17.3953" fill="white" transform="translate(0.253906 0.805542)"/>
</clipPath>
</defs>
</svg>
