<svg width="26" height="26" viewBox="0 0 26 26" fill="none" xmlns="http://www.w3.org/2000/svg">
<path d="M12.9997 13C11.808 13 10.7879 12.5757 9.93926 11.7271C9.09065 10.8785 8.66634 9.85834 8.66634 8.66668C8.66634 7.47501 9.09065 6.45487 9.93926 5.60626C10.7879 4.75765 11.808 4.33334 12.9997 4.33334C14.1913 4.33334 15.2115 4.75765 16.0601 5.60626C16.9087 6.45487 17.333 7.47501 17.333 8.66668C17.333 9.85834 16.9087 10.8785 16.0601 11.7271C15.2115 12.5757 14.1913 13 12.9997 13ZM4.33301 21.6667V18.6333C4.33301 18.0195 4.49099 17.4552 4.80697 16.9406C5.12294 16.4261 5.54273 16.0333 6.06634 15.7625C7.18579 15.2028 8.32329 14.783 9.47884 14.5031C10.6344 14.2233 11.808 14.0833 12.9997 14.0833C14.1913 14.0833 15.365 14.2233 16.5205 14.5031C17.6761 14.783 18.8136 15.2028 19.933 15.7625C20.4566 16.0333 20.8764 16.4261 21.1924 16.9406C21.5084 17.4552 21.6663 18.0195 21.6663 18.6333V21.6667H4.33301ZM6.49967 19.5H19.4997V18.6333C19.4997 18.4347 19.45 18.2542 19.3507 18.0917C19.2514 17.9292 19.1205 17.8028 18.958 17.7125C17.983 17.225 16.999 16.8594 16.0059 16.6156C15.0129 16.3719 14.0108 16.25 12.9997 16.25C11.9886 16.25 10.9865 16.3719 9.99342 16.6156C9.00037 16.8594 8.01634 17.225 7.04134 17.7125C6.87884 17.8028 6.74794 17.9292 6.64863 18.0917C6.54933 18.2542 6.49967 18.4347 6.49967 18.6333V19.5ZM12.9997 10.8333C13.5955 10.8333 14.1056 10.6212 14.5299 10.1969C14.9542 9.77258 15.1663 9.26251 15.1663 8.66668C15.1663 8.07084 14.9542 7.56077 14.5299 7.13647C14.1056 6.71216 13.5955 6.50001 12.9997 6.50001C12.4038 6.50001 11.8938 6.71216 11.4695 7.13647C11.0452 7.56077 10.833 8.07084 10.833 8.66668C10.833 9.26251 11.0452 9.77258 11.4695 10.1969C11.8938 10.6212 12.4038 10.8333 12.9997 10.8333Z" fill="black"/>
</svg>
