<svg width="26" height="26" viewBox="0 0 26 26" fill="none" xmlns="http://www.w3.org/2000/svg">
<path d="M7.58301 23.8333C6.98717 23.8333 6.47711 23.6212 6.0528 23.1969C5.62849 22.7726 5.41634 22.2625 5.41634 21.6667C5.41634 21.0708 5.62849 20.5608 6.0528 20.1364C6.47711 19.7121 6.98717 19.5 7.58301 19.5C8.17884 19.5 8.68891 19.7121 9.11322 20.1364C9.53752 20.5608 9.74967 21.0708 9.74967 21.6667C9.74967 22.2625 9.53752 22.7726 9.11322 23.1969C8.68891 23.6212 8.17884 23.8333 7.58301 23.8333ZM18.4163 23.8333C17.8205 23.8333 17.3104 23.6212 16.8861 23.1969C16.4618 22.7726 16.2497 22.2625 16.2497 21.6667C16.2497 21.0708 16.4618 20.5608 16.8861 20.1364C17.3104 19.7121 17.8205 19.5 18.4163 19.5C19.0122 19.5 19.5222 19.7121 19.9466 20.1364C20.3709 20.5608 20.583 21.0708 20.583 21.6667C20.583 22.2625 20.3709 22.7726 19.9466 23.1969C19.5222 23.6212 19.0122 23.8333 18.4163 23.8333ZM6.66217 6.49999L9.26217 11.9167H16.8455L19.8247 6.49999H6.66217ZM5.63301 4.33332H21.6122C22.0275 4.33332 22.3434 4.51839 22.5601 4.88853C22.7768 5.25867 22.7858 5.63332 22.5872 6.01249L18.7413 12.9458C18.5427 13.3069 18.2764 13.5868 17.9424 13.7854C17.6084 13.984 17.2427 14.0833 16.8455 14.0833H8.77467L7.58301 16.25H20.583V18.4167H7.58301C6.77051 18.4167 6.15662 18.0601 5.74134 17.3469C5.32606 16.6337 5.30801 15.925 5.68717 15.2208L7.14967 12.5667L3.24967 4.33332H1.08301V2.16666H4.60384L5.63301 4.33332Z" fill="black"/>
</svg>
