<svg width="22" height="18" viewBox="0 0 22 18" fill="none" xmlns="http://www.w3.org/2000/svg">
<g clip-path="url(#clip0_70_3779)">
<path d="M21.5804 2.94307C20.7988 3.27297 19.9697 3.48951 19.1207 3.5855C20.005 3.08057 20.684 2.28098 21.0037 1.32829C20.1631 1.80354 19.2433 2.13838 18.2842 2.31835C17.503 1.52544 16.3901 1.02991 15.1582 1.02991C12.7931 1.02991 10.8755 2.85669 10.8755 5.10979C10.8755 5.42961 10.9134 5.74096 10.9864 6.03965C7.42712 5.86945 4.2715 4.24518 2.15919 1.77675C1.79063 2.37933 1.57944 3.08026 1.57944 3.82787C1.57944 5.2434 2.33556 6.49215 3.48463 7.22384C2.80454 7.20355 2.13941 7.02855 1.54478 6.71347C1.54454 6.73056 1.54454 6.74765 1.54454 6.76481C1.54454 8.7416 3.02075 10.3906 4.97984 10.7655C4.3492 10.9289 3.68769 10.9528 3.04586 10.8354C3.5908 12.4563 5.17244 13.6358 7.04641 13.6688C5.58071 14.7631 3.73406 15.4154 1.72768 15.4154C1.38194 15.4154 1.0411 15.396 0.706055 15.3584C2.6013 16.516 4.85239 17.1914 7.27089 17.1914C15.1483 17.1914 19.4558 10.9744 19.4558 5.58295C19.4558 5.40599 19.4517 5.23004 19.4434 5.0551C20.2819 4.47767 21.0055 3.76248 21.5804 2.94307Z" fill="white"/>
</g>
<defs>
<clipPath id="clip0_70_3779">
<rect width="20.8744" height="16.2356" fill="white" transform="translate(0.706055 0.96582)"/>
</clipPath>
</defs>
</svg>
